<svg xmlns="http://www.w3.org/2000/svg" xmlns:xlink="http://www.w3.org/1999/xlink" version="1.1" id="Layer_1" x="0px" y="0px" viewBox="0 0 30 30" enable-background="new 0 0 30 30" xml:space="preserve">
<path id="vk_x5F_alt_1_" fill-rule="evenodd" clip-rule="evenodd" fill="#d4d8e6" d="M14.7,23.9h1.8c0,0,0.5-0.1,0.8-0.4  c0.3-0.3,0.2-0.8,0.2-0.8s0-2.4,1.1-2.7c1.1-0.3,2.5,2.3,3.9,3.3c1.1,0.8,2,0.6,2,0.6l3.9-0.1c0,0,2.1-0.1,1.1-1.7  c-0.1-0.1-0.6-1.2-2.9-3.4c-2.5-2.3-2.1-1.9,0.8-5.9c1.8-2.4,2.5-3.9,2.3-4.5c-0.2-0.6-1.5-0.4-1.5-0.4l-4.4,0c0,0-0.3,0-0.6,0.1  c-0.2,0.1-0.4,0.5-0.4,0.5s-0.7,1.9-1.6,3.5c-2,3.4-2.8,3.5-3.1,3.3c-0.8-0.5-0.6-1.9-0.6-3c0-3.2,0.5-4.6-1-5  c-0.5-0.1-0.8-0.2-2.1-0.2c-1.6,0-2.9,0-3.7,0.4c-0.5,0.2-0.9,0.8-0.7,0.8c0.3,0,1,0.2,1.3,0.7c0.5,0.6,0.4,2,0.4,2s0.3,3.8-0.6,4.3  c-0.6,0.3-1.4-0.3-3.2-3.4c-0.9-1.6-1.6-3.3-1.6-3.3S6.4,8.3,6.1,8.2C5.9,7.9,5.5,7.9,5.5,7.9l-4.2,0c0,0-0.6,0-0.9,0.3  C0.2,8.4,0.4,9,0.4,9s3.3,7.7,7,11.6C10.8,24.1,14.7,23.9,14.7,23.9L14.7,23.9L14.7,23.9z" fill-opacity="1" type="solidColor"></path>
</svg>