<svg xmlns="http://www.w3.org/2000/svg" xmlns:xlink="http://www.w3.org/1999/xlink" version="1.1" id="Layer_1" x="0px" y="0px" viewBox="0 0 30 30" enable-background="new 0 0 30 30" xml:space="preserve">
<g id="instagram_1_">
	<path fill="#d4d8e6" d="M15.1,2.7c4,0,4.5,0,6.1,0.1c1.5,0.1,2.3,0.3,2.8,0.5c0.7,0.3,1.2,0.6,1.7,1.1c0.5,0.5,0.9,1,1.1,1.7   C27,6.7,27.3,7.5,27.3,9c0.1,1.6,0.1,2.1,0.1,6.1s0,4.5-0.1,6.1c-0.1,1.5-0.3,2.3-0.5,2.8c-0.3,0.7-0.6,1.2-1.1,1.7   c-0.5,0.5-1,0.9-1.7,1.1c-0.5,0.2-1.3,0.5-2.8,0.5c-1.6,0.1-2.1,0.1-6.1,0.1s-4.5,0-6.1-0.1c-1.5-0.1-2.3-0.3-2.8-0.5   c-0.7-0.3-1.2-0.6-1.7-1.1c-0.5-0.5-0.9-1-1.1-1.7c-0.2-0.5-0.5-1.3-0.5-2.8c-0.1-1.6-0.1-2.1-0.1-6.1s0-4.5,0.1-6.1   c0.1-1.5,0.3-2.3,0.5-2.8C3.6,5.5,3.9,5,4.4,4.4c0.5-0.5,1-0.9,1.7-1.1C6.7,3.1,7.5,2.9,9,2.8C10.6,2.7,11,2.7,15.1,2.7 M15.1,0   C11,0,10.5,0,8.8,0.1C7.2,0.1,6.1,0.4,5.2,0.8c-1,0.4-1.8,0.9-2.7,1.7S1.2,4.2,0.8,5.2c-0.4,1-0.6,2.1-0.7,3.7C0,10.5,0,11,0,15.1   c0,4.1,0,4.6,0.1,6.2c0.1,1.6,0.3,2.7,0.7,3.7c0.4,1,0.9,1.8,1.7,2.7s1.7,1.4,2.7,1.7c1,0.4,2.1,0.6,3.7,0.7   c1.6,0.1,2.1,0.1,6.2,0.1s4.6,0,6.2-0.1c1.6-0.1,2.7-0.3,3.7-0.7c1-0.4,1.8-0.9,2.7-1.7c0.8-0.8,1.4-1.7,1.7-2.7   c0.4-1,0.6-2.1,0.7-3.7c0.1-1.6,0.1-2.1,0.1-6.2s0-4.6-0.1-6.2c-0.1-1.6-0.3-2.7-0.7-3.7c-0.4-1-0.9-1.8-1.7-2.7   c-0.8-0.8-1.7-1.4-2.7-1.7c-1-0.4-2.1-0.6-3.7-0.7C19.7,0,19.2,0,15.1,0L15.1,0z" fill-opacity="1" id="path-3" type="solidColor"></path>
	<path fill="#d4d8e6" d="M15.1,7.3c-4.3,0-7.7,3.5-7.7,7.7s3.5,7.7,7.7,7.7s7.7-3.5,7.7-7.7S19.3,7.3,15.1,7.3z M15.1,20.1   c-2.8,0-5-2.2-5-5s2.3-5,5-5s5,2.2,5,5S17.8,20.1,15.1,20.1z" fill-opacity="1" id="path-4" type="solidColor"></path>
	<circle fill="#d4d8e6" cx="23.1" cy="7" r="1.8" fill-opacity="1" id="circle-5" type="solidColor"></circle>
</g>
</svg>