<svg xmlns="http://www.w3.org/2000/svg" xmlns:xlink="http://www.w3.org/1999/xlink" version="1.1" id="Layer_1" x="0px" y="0px" viewBox="0 0 60 60" enable-background="new 0 0 60 60" xml:space="preserve">
<path id="youtube_x5F_alt_1_" fill="#d4d8e6" d="M58.5,15.4c-0.7-3.1-3.3-5.5-6.4-5.8C44.8,8.8,37.4,8.8,30,8.8  c-7.4,0-14.8,0-22.1,0.8c-3.1,0.3-5.7,2.7-6.4,5.8c-1,4.5-1,9.4-1,14c0,4.6,0,9.5,1,14c0.7,3.1,3.3,5.5,6.4,5.8  C15.2,50,22.6,50,30,50c7.4,0,14.8,0,22.1-0.8c3.1-0.3,5.7-2.7,6.4-5.8c1-4.5,1-9.4,1-14C59.6,24.8,59.6,19.9,58.5,15.4z M23.8,37.4  V21.1l15.6,8.2L23.8,37.4z" fill-opacity="1" type="solidColor"></path>
</svg>